<svg xmlns="http://www.w3.org/2000/svg" viewBox="0 0 128 128" fill="none">
  <defs>
    <linearGradient id="iconShield" x1="10" y1="10" x2="118" y2="118" gradientUnits="userSpaceOnUse">
      <stop offset="0%" stop-color="#38BDF8"/>
      <stop offset="50%" stop-color="#0066FF"/>
      <stop offset="100%" stop-color="#0B1220"/>
    </linearGradient>
    <filter id="iconGlow" x="-20%" y="-20%" width="140%" height="140%">
      <feGaussianBlur stdDeviation="3" result="blur"/>
      <feComposite in="SourceGraphic" in2="blur" operator="over"/>
    </filter>
  </defs>

  <rect width="128" height="128" rx="28" fill="#0B1220"/>
  <rect width="126" height="126" x="1" y="1" rx="27" stroke="#1E293B" stroke-width="1.5" fill="none"/>

  <g transform="translate(14, 12)">
    <path d="M50 8 L88 24 V58 C88 84 50 102 50 102 C50 102 12 84 12 58 V24 Z" 
          stroke="url(#iconShield)" stroke-width="4" fill="#0B1220" filter="url(#iconGlow)"/>
    <path d="M50 16 L80 28 V56 C80 76 50 92 50 92 C50 92 20 76 20 56 V28 Z" 
          stroke="#0066FF" stroke-width="2" stroke-dasharray="4 2" fill="none" opacity="0.8"/>

    <ellipse cx="50" cy="52" rx="24" ry="24" stroke="#38BDF8" stroke-width="1.5" opacity="0.4"/>
    <ellipse cx="50" cy="52" rx="12" ry="24" stroke="#38BDF8" stroke-width="1.5" opacity="0.6"/>
    <path d="M26 52 H74 M31 40 H69 M31 64 H69" stroke="#38BDF8" stroke-width="1.5" opacity="0.5"/>

    <path d="M42 38 V66 M42 50 C42 44 58 44 58 50 V66" 
          stroke="#FFFFFF" stroke-width="4.5" stroke-linecap="round" stroke-linejoin="round" filter="url(#iconGlow)"/>
    <circle cx="50" cy="33" r="4" fill="#38BDF8"/>
  </g>
</svg>
